<?xml version="1.0" standalone="no"?>
<!DOCTYPE svg PUBLIC "-//W3C//DTD SVG 20010904//EN"
 "http://www.w3.org/TR/2001/REC-SVG-20010904/DTD/svg10.dtd">
<svg version="1.0" xmlns="http://www.w3.org/2000/svg"
 width="42.000000pt" height="41.000000pt" viewBox="0 0 42.000000 41.000000"
 preserveAspectRatio="xMidYMid meet">

<g transform="translate(0.000000,41.000000) scale(0.100000,-0.100000)"
fill="#664de5" stroke="none">
<path d="M62 247 c4 -110 15 -141 62 -172 30 -20 87 -30 121 -21 l26 7 -26 33
c-17 22 -29 57 -36 97 -14 90 -51 136 -123 153 l-28 7 4 -104z"/>
<path d="M271 244 c-20 -14 -23 -23 -18 -61 4 -41 37 -93 59 -93 14 0 37 44
44 86 5 35 3 45 -15 63 -25 25 -39 26 -70 5z"/>
</g>
</svg>
