<?xml version="1.0" standalone="no"?>
<!DOCTYPE svg PUBLIC "-//W3C//DTD SVG 20010904//EN"
 "http://www.w3.org/TR/2001/REC-SVG-20010904/DTD/svg10.dtd">
<svg version="1.0" xmlns="http://www.w3.org/2000/svg"
 width="65.000000pt" height="57.000000pt" viewBox="0 0 65.000000 57.000000"
 preserveAspectRatio="xMidYMid meet">

<g transform="translate(0.000000,57.000000) scale(0.100000,-0.100000)"
fill="#664de5" stroke="none">
<path d="M262 526 c-64 -21 -109 -55 -145 -111 -27 -41 -32 -61 -35 -120 -3
-62 0 -77 25 -125 96 -183 350 -183 445 -1 34 65 38 153 9 216 -50 112 -189
177 -299 141z m138 -203 c0 -12 -73 -83 -85 -83 -17 0 -58 47 -47 54 5 3 15
-1 22 -9 18 -22 33 -19 65 15 28 29 45 38 45 23z"/>
</g>
</svg>
